<?xml version="1.0" encoding="utf-8"?>
<!-- Generator: Adobe Illustrator 24.3.0, SVG Export Plug-In . SVG Version: 6.00 Build 0)  -->
<svg version="1.1" id="Layer_1" xmlns="http://www.w3.org/2000/svg" xmlns:xlink="http://www.w3.org/1999/xlink" x="0px" y="0px"
	 viewBox="0 0 64 64" enable-background="new 0 0 64 64" xml:space="preserve">
<path d="M51.7,20.4c-0.7-0.5-1.6-0.6-2.4-0.4c-0.8,0.2-1.5,0.8-1.8,1.6l-1.9,4.5l0.6-9.4c0-0.7-0.2-1.4-0.7-1.9S44.3,14,43.6,14
	c-1.2,0-2.3,0.9-2.5,2.1l-1.6,7.8l-1-7.6C38.3,15,37.2,14,35.9,14c-1.4,0-2.6,1.1-2.7,2.5l-0.5,8L30.9,19c-0.3-0.8-0.9-1.5-1.7-1.8
	c-0.8-0.3-1.7-0.2-2.5,0.3c-1,0.7-1.4,1.9-1.1,3l4.5,16.9c0,0.2,0,0.4-0.1,0.5c-0.2,0.2-0.4,0.2-0.4,0.2c-0.1,0-0.3-0.1-0.4-0.3
	l-3-4.7c-0.4-0.7-1.1-1.1-1.9-1.2c-0.8-0.1-1.5,0.2-2.1,0.7c-0.7,0.7-0.9,1.6-0.6,2.5l2.8,9c0.1,0.3,0.2,0.5,0.3,0.8H8.1
	C5.9,45,4,43.1,4,40.9v-29C4.3,11.9,4.6,12,5,12h38c1.1,0,2.2-0.4,3-1v2h2V6h-0.1c-0.5-2.3-2.5-4-4.9-4H5C3.3,2,2,3.3,2,5
	c0,0.8,0.3,1.5,0.8,2C2.3,7.5,2,8.2,2,9v31.9C2,44.2,4.8,47,8.1,47h17.4c0.5,1.1,1.2,2.2,1.9,3.2l0.4,0.5c2.1,2.8,3.5,7.3,3.5,11.3
	h2c0-4.5-1.5-9.3-3.9-12.5L29,49c-1.2-1.6-2.1-3.4-2.7-5.4l-2.8-9c-0.1-0.2,0-0.4,0.1-0.5c0.2-0.2,0.3-0.2,0.4-0.1
	c0.1,0,0.3,0.1,0.4,0.2l3,4.7c0.4,0.7,1.1,1.1,1.9,1.2c0.8,0.1,1.5-0.2,2.1-0.7c0.6-0.6,0.9-1.6,0.7-2.4L27.6,20
	c-0.1-0.3,0-0.6,0.3-0.8c0.2-0.1,0.4-0.2,0.7-0.1c0.2,0.1,0.4,0.3,0.5,0.5l3.3,10.8c0.1,0.5,0.6,0.8,1.1,0.7
	c0.5-0.1,0.9-0.4,0.9-0.9l0.9-13.5c0-0.3,0.3-0.6,0.7-0.6c0.3,0,0.6,0.2,0.7,0.6l1.8,13.6c0.1,0.5,0.5,0.9,1,0.9
	c0.5,0,0.9-0.3,1-0.8L43,16.5c0.1-0.3,0.3-0.5,0.6-0.5c0.2,0,0.4,0.1,0.4,0.2c0.1,0.1,0.2,0.2,0.2,0.4l-0.9,15.3
	c0,0.5,0.3,0.9,0.8,1c0.5,0.1,1-0.1,1.1-0.6l4.1-9.9c0.1-0.3,0.4-0.4,0.5-0.5c0.1,0,0.4-0.1,0.7,0.1c0.3,0.2,0.4,0.6,0.3,0.9
	l-3.6,12.7c0,0.1,0,0.2,0,0.3v8.2c0,2.4-0.5,4.7-1.4,6.9c-1,2.4-1.6,5-1.6,7.7V62h2v-3.2c0-2.4,0.5-4.7,1.4-6.9c1-2.4,1.6-5,1.6-7.7
	v-8.1l3.6-12.6C53.2,22.4,52.8,21.1,51.7,20.4z M5,6C4.4,6,4,5.6,4,5s0.4-1,1-1h38c1.7,0,3,1.3,3,3s-1.3,3-3,3H5c-0.6,0-1-0.4-1-1
	s0.4-1,1-1h35V6H5z"/>
<path d="M57.5,10c-1.9,0-3.5,1.6-3.5,3.5v1c0,0.8-0.7,1.5-1.5,1.5H50v2h2.5c1.9,0,3.5-1.6,3.5-3.5v-1c0-0.8,0.7-1.5,1.5-1.5
	c1.9,0,3.5-1.6,3.5-3.5v-1C61,5.6,59.4,4,57.5,4H50v2h7.5C58.3,6,59,6.7,59,7.5v1C59,9.3,58.3,10,57.5,10z"/>
<rect x="58" y="24" width="4" height="2"/>
<rect x="54" y="30" width="4" height="2"/>
<rect x="60" y="30" width="2" height="2"/>
<rect x="51" y="37" width="7" height="2"/>
<rect x="60" y="37" width="2" height="2"/>
</svg>
