<?xml version="1.0" encoding="UTF-8" standalone="no"?> <svg id="Layer_1" data-name="Layer 1" xmlns="http://www.w3.org/2000/svg" viewBox="0 0 64 64"><defs><style>.cls-1{fill:#010101;}</style></defs><path class="cls-1" d="M55.311,43.9c-.052-.047-.083-.075-.091-.081h0C55.2,43.809,55.271,43.877,55.311,43.9Z"/><path class="cls-1" d="M58.853,44.936A7.16,7.16,0,0,0,57.339,43.1c-.5-.465-1.038-.884-1.581-1.3L51.3,38.373,47.309,35.3a2.455,2.455,0,0,0-.233-.172,7.492,7.492,0,0,0-2.389-.871A10.411,10.411,0,0,0,42.71,34.1h-.081v-4.09a1.065,1.065,0,0,0,.223-.025c.688-.2.811-.779.811-1.38V26.727a3.537,3.537,0,0,0-2.286-3.265,4.258,4.258,0,0,0-1.564-.216h-9.8a3.552,3.552,0,0,0-2.6,1.08,3.456,3.456,0,0,0-.9,1.788,6.612,6.612,0,0,0-.059,1.061V28.39a2.277,2.277,0,0,0,.111,1,1.03,1.03,0,0,0,.922.607v4.1H23.029v-5.01a2.365,2.365,0,0,0-1.68-2.234,3.4,3.4,0,0,0-.942-.092H18.3l-.629-4.63q-.584-4.284-1.166-8.568-.135-.99-.269-1.979a.976.976,0,0,0-.939-.715H13.167v-.834a.988.988,0,0,0-.974-.974H7.349a4.289,4.289,0,0,0-1.319.1,2.135,2.135,0,0,0-1.381,1.406,3.617,3.617,0,0,0-.087,1.027,3.115,3.115,0,0,0,.589,2.381,2.431,2.431,0,0,0,1.866.647h5.176a.983.983,0,0,0,.974-.973v-.835h1.284q.317,2.328.634,4.655.582,4.284,1.165,8.568c.033.241.065.481.1.722H14.9c-.222,0-.444,0-.666,0a2.393,2.393,0,0,0-2,1.1A3.8,3.8,0,0,0,11.887,30v2.861c0,1.534-.019,3.069,0,4.6A14.588,14.588,0,0,0,13.267,43.4q.477,1.032.961,2.059a8.641,8.641,0,0,0-.48,2.973,8.811,8.811,0,0,0,1.437,4.691,8.825,8.825,0,0,0,15.1-.548H42.737A6.04,6.04,0,0,0,43.3,54a6.266,6.266,0,0,0,6.5,3.017,6.155,6.155,0,0,0,4.807-4.44H57.46a2.6,2.6,0,0,0,.8-.082,1.7,1.7,0,0,0,1.16-1.612c.017-.584,0-1.171,0-1.754V47.282A5.036,5.036,0,0,0,58.853,44.936ZM6.548,11.044l-.01.01C6.522,11.059,6.526,11.055,6.548,11.044Zm-.038.07v.013C6.478,11.165,6.447,11.19,6.51,11.114Zm0,1.444h0C6.492,12.532,6.483,12.519,6.509,12.558Zm.116.118h0C6.681,12.71,6.659,12.7,6.625,12.676Zm.062,0H6.631c.11,0-.111-.066-.006,0h0c-.025-.016-.054-.033-.065-.042l-.009-.01-.04-.063h0c.067.1,0-.117,0,0,0-.016,0-.033,0-.043s0-.037,0-.056c0-.122,0-.245,0-.367,0-.282,0-.564,0-.846,0-.023,0-.047,0-.07,0-.007,0-.016,0-.025l0-.026,0,0v-.013l.01-.013,0-.014,0,.01.006-.008a.287.287,0,0,0,.027-.036c.029-.016.055-.025,0-.005l0-.011.06-.028h0l.038-.018-.037.018h0c-.091.043-.025.013.018,0H11.22v1.669C9.709,12.674,8.2,12.671,6.687,12.675Zm22.748,17.34H40.682V34.1H29.435ZM42.49,28.068h-.062C42.564,28.023,42.651,28.069,42.49,28.068Zm-13.15-2.76c.043-.021.153-.05,0,0Zm-.93,1.2c0-.075,0-.043,0,0Zm0,.043v-.017c.013-.067.027-.132.044-.2s.042-.137.065-.2c-.013.037-.086.162,0,0,.052-.1.111-.2.167-.293l.013-.023c.049-.058.1-.115.152-.168s.082-.076.122-.115l.021-.021c.006,0,0,0,.014-.006.107-.07.214-.131.327-.191l0,0c.053-.017.106-.036.16-.052s.113-.026.168-.042a.291.291,0,0,0,.045-.016.187.187,0,0,0,.044,0c.1,0,.208-.007.313-.007h9.3c.271,0,.543,0,.814,0,.04,0,.222.023.242.02.113.025.224.054.335.09a.557.557,0,0,1,.061.026c.062.034.125.066.185.1l.108.073c.037.033.111.1.124.109.04.039.077.08.116.12.018.019.034.039.051.059l.005.007a2.854,2.854,0,0,1,.2.357c0,.006,0,0,0,.012.022.084.051.164.071.248,0,.011.009.044.015.074,0,.045.015.211.015.236v1.341H28.4v-.84C28.4,27,28.4,26.775,28.408,26.548Zm-.717,1.52H27.66C27.479,28.068,27.54,28.015,27.691,28.068ZM20.8,28.71Zm-6.969,7.92V34.117c0-1.635-.007-3.27,0-4.9,0-.04,0-.081,0-.121v-.006l0-.052L13.844,29l.018-.061.01-.019a.587.587,0,0,0,.034-.056.96.96,0,0,1,.069-.074l.005,0a.325.325,0,0,0,.066-.039l.019-.01a.383.383,0,0,0,.061-.018l.036-.008h.006a.206.206,0,0,0,.048,0c.059,0,.117,0,.176,0h2.922a.944.944,0,0,0,.219,0h2.286c.277,0,.555,0,.832,0,.016,0,.033,0,.049,0s.081,0,.1,0h-.01c-.224-.011.1.072.059.029.028.018.053.032.07.041.043.05.093.115.1.122.03.071.065.163.022.015.014.041.023.083.033.124a.38.38,0,0,0,0,.045V34.1h-.8a2.769,2.769,0,0,0-.547.061l-.031.008a2.758,2.758,0,0,0-.508.162c-.043.018-.086.035-.128.055a2.627,2.627,0,0,0-.485.3c-.011.01-.021.021-.033.031a2.4,2.4,0,0,0-.406.435c-.009.012-.022.02-.031.033s-.015.028-.025.041c-.041.062-.079.127-.115.193-.026.05-.051.1-.073.151a2.3,2.3,0,0,0-.185.592c-.007.044,0,.089-.01.134a11.979,11.979,0,0,0-.035,1.572v3.092a8.543,8.543,0,0,0-1.89,1.7c-.157.193-.3.392-.444.6a15.22,15.22,0,0,1-1.405-4.341A18.421,18.421,0,0,1,13.834,36.63ZM28.513,51.761c-.093.158-.191.314-.3.465-.052.076-.106.15-.159.224l-.035.047-.094.117a8.07,8.07,0,0,1-.689.731c-.134.125-.274.242-.414.36l-.045.039-.048.033c-.1.071-.2.142-.3.21a7.772,7.772,0,0,1-.959.547c-.07.034-.14.065-.21.1l-.029.014-.038.014c-.2.077-.408.151-.617.214a7.631,7.631,0,0,1-1.078.241l-.152.019c-.1.01-.194.017-.29.023-.194.012-.387.017-.581.015s-.363-.01-.544-.025c-.089-.007-.178-.017-.268-.026l-.044,0-.05-.01a9.3,9.3,0,0,1-1.068-.25,6.145,6.145,0,0,1-1.745-.834c-.118-.078-.233-.161-.349-.243l-.039-.026a.441.441,0,0,0-.034-.029l-.2-.163a7.977,7.977,0,0,1-.784-.776c-.056-.064-.111-.129-.165-.194l-.092-.118c-.073-.1-.145-.2-.213-.3a7.924,7.924,0,0,1-.552-.964c-.038-.077-.073-.155-.109-.234l-.017-.038L16.2,50.89c-.059-.163-.121-.324-.173-.49a7.684,7.684,0,0,1-.248-1.022c0-.017-.021-.136-.026-.162-.007-.066-.015-.132-.021-.2-.017-.18-.027-.361-.031-.541q-.007-.336.013-.67a5.206,5.206,0,0,1,.061-.573,7.1,7.1,0,0,1,.57-1.859l.006-.012c.09-.188.19-.376.3-.567.1-.166.2-.328.313-.486.044-.063.088-.126.134-.188l.058-.079h0s0,0-.026.036c.023-.029.046-.056.069-.084a9.19,9.19,0,0,1,.875-.9,6.672,6.672,0,0,1,.758-.567c.13-.084.262-.164.4-.242s.277-.144.414-.218c.121-.058.245-.108.368-.157a1.882,1.882,0,0,0,.438-.156c.054-.018.109-.036.162-.052.124-.037.249-.07.374-.1l.141-.032a6.357,6.357,0,0,1,.819-.129l.087,0a7.483,7.483,0,0,1,.8-.011c.071,0,.142,0,.213.008s.168.01.252.017l.127.012.109.013.059.009h0c.3.057.593.12.886.2.246.071.488.152.726.246l.029.011.036.017c.055.025.111.05.167.077.09.043.177.091.265.137.208.109.407.235.605.362.1.067.211.126.312.2l.117.086.049.037c.129.106.257.214.38.326a8.2,8.2,0,0,1,.606.617q.12.138.234.279l.027.032s0,0,.016.024c.044.061.088.123.131.185a8.009,8.009,0,0,1,.516.852c.051.1.1.2.148.3.026.054.05.109.075.164,0,.016.052.129.061.154.088.232.161.469.226.708.034.123.07.245.1.369a4.115,4.115,0,0,1,.1.494c0-.032-.007-.04,0,.051,0,.032.006.063.01.094.007.086.015.171.021.258,0,.031,0,.063.005.094,0,.08.006.16.008.239a7.886,7.886,0,0,1-.021.856c-.013.158-.034.3-.058.45-.006.036-.01.062-.009.053-.044.239-.1.475-.166.709-.01.036-.02.071-.031.106-.064.216-.138.43-.221.639-.029.073-.058.142-.085.2s-.052.111-.079.166Q28.652,51.523,28.513,51.761Zm24.161.615c-.011.03-.082.2-.087.224-.046.1-.094.2-.146.3a5.859,5.859,0,0,1-.391.619l-.016.024s0,0-.017.016c-.037.044-.073.088-.111.131-.076.086-.154.169-.235.25s-.165.158-.252.233c-.043.038-.087.074-.131.111l-.006.005c-.023.017-.046.035-.07.051a5.893,5.893,0,0,1-.587.362c-.1.054-.206.105-.312.152l-.012.006-.037.012c-.069.023-.137.05-.207.073a5.21,5.21,0,0,1-.685.175l-.073.013-.16.018c-.136.012-.274.019-.411.02s-.246,0-.368-.01c-.061,0-.121-.008-.182-.014l-.095-.012-.135-.023c-.059-.011-.117-.024-.175-.037-.129-.029-.257-.064-.384-.1-.111-.035-.221-.075-.33-.116l-.026-.009-.023-.011-.157-.074a5.339,5.339,0,0,1-.632-.372l-.14-.1-.012-.008-.028-.025c-.085-.076-.173-.149-.256-.228s-.164-.16-.242-.244c-.039-.042-.077-.084-.114-.127l-.08-.095-.086-.114c-.034-.046-.066-.094-.1-.142q-.095-.144-.18-.294c-.057-.1-.111-.2-.161-.306-.025-.052-.049-.105-.073-.158.07.156-.013-.038-.033-.091a5.293,5.293,0,0,1-.2-.677c-.018-.084-.032-.17-.046-.255-.019-.178-.033-.351-.036-.517a5.247,5.247,0,0,1,.03-.6,3.992,3.992,0,0,1,.092-.486c.01-.042.02-.085.032-.127a5.193,5.193,0,0,1,.162-.5c.011-.026.028-.067.04-.092a6.857,6.857,0,0,1,.36-.643l.006-.011c.015-.022.031-.044.046-.067.035-.051.071-.1.108-.151l.03-.039c.034-.039.107-.127.132-.155a5.387,5.387,0,0,1,.421-.407,4.934,4.934,0,0,1,.991-.659l.023-.01c.037-.019.091-.039.138-.058a4.992,4.992,0,0,1,.542-.181c.068-.018.134-.033.2-.048l.147-.033a2.392,2.392,0,0,1,.267-.039l.017,0a5.861,5.861,0,0,1,.726-.013l.043,0c.086,0,.173.013.259.022l.094.015.013,0c.026,0,.051.01.077.015.113.022.215.057.321.085.145.039.288.082.429.133a3.806,3.806,0,0,1,.5.224h0a4.379,4.379,0,0,1,.9.658c.088.085.173.173.255.263a4.533,4.533,0,0,1,.641.937c.015.03.165.358.1.2.03.074.057.149.083.224.036.1.057.21.086.314.046.167.094.334.13.5l0,.031a.742.742,0,0,0,.014.12l0,.056c.009.111.012.223.014.334a5.515,5.515,0,0,1-.036.715c-.006.034-.011.069-.018.1A5.212,5.212,0,0,1,52.674,52.376Zm2.805-1.751h-.626a6.014,6.014,0,0,0-.058-.614c-.007-.044-.017-.086-.025-.129a6.087,6.087,0,0,0-.185-.765c-.012-.037-.023-.075-.036-.112A6.114,6.114,0,0,0,52.8,46.313c-.1-.085-.2-.157-.3-.236l-.04-.031a6.423,6.423,0,0,0-.624-.42c-.071-.043-.141-.088-.214-.128-.126-.068-.257-.126-.388-.185s-.257-.135-.395-.188a5.7,5.7,0,0,0-1.375-.327l-.113-.014c-.192-.02-.383-.033-.575-.034-.135,0-.27,0-.405.009-.117.007-.232.009-.348.022a6.174,6.174,0,0,0-.888.152,6.006,6.006,0,0,0-.744.257l-.072.024c-.185.077-.357.172-.534.266-.121.065-.245.124-.362.2-.029.018-.062.03-.09.049a4.756,4.756,0,0,0-1.239,1.057l-.014.013c-.03.034-.052.074-.082.109q-.219.264-.409.546c-.05.076-.1.15-.149.228a6.2,6.2,0,0,0-.924,2.946H31.083c.069-.254.129-.512.173-.774a9.81,9.81,0,0,0,.142-1.558c0-.118-.021-.234-.026-.352,0-.072-.013-.145-.017-.217-.019-.276-.038-.551-.083-.823a8.6,8.6,0,0,0-1.112-3.1c-.035-.059-.079-.112-.116-.17-.049-.08-.106-.154-.158-.232-.146-.216-.3-.428-.459-.629-.132-.165-.273-.321-.416-.477-.079-.084-.158-.167-.24-.248a8.432,8.432,0,0,0-2.443-1.734c-.189-.086-.386-.141-.579-.214-.153-.06-.306-.12-.463-.172-.172-.055-.344-.1-.518-.148a8.938,8.938,0,0,0-.95-.2c-.055-.008-.108-.021-.163-.027-.079-.011-.156-.031-.235-.039a7.775,7.775,0,0,0-1.012-.026c-.03,0-.059,0-.088,0a9.314,9.314,0,0,0-1.142.112c-.073.01-.146.008-.219.021l-.048.011-.037,0c-.118.022-.234.054-.351.082a8.218,8.218,0,0,0-.9.26V36.664c0-.02,0-.041,0-.061v0c0-.014,0-.055,0-.084l0,0c0,.16.01.022.02-.054a.531.531,0,0,0,.038-.112L19.7,36.3c.011-.019.023-.037.035-.056a.5.5,0,0,0,.042-.044l.045-.042.036-.023c.031-.015.089-.042.115-.056.093-.018.217-.035.13-.037l.007,0,.126,0c.207,0,.413,0,.62,0H42.1c.3,0,.6,0,.9,0a6.077,6.077,0,0,1,3.115.779,9.876,9.876,0,0,1,.818.625L48.947,39l4.845,3.725,1.4,1.078.026.02h0c.032.024.065.048.1.074,0,0,.021.012.022.017s-.013,0-.027-.01l.008.007c.107.1.223.192.333.289.3.26.586.528.856.815.107.114.208.232.307.352.025.033.076.1.085.112.062.087.12.177.175.269a3.887,3.887,0,0,1,.185.357c.015.038.039.1.045.118.026.074.048.15.068.226s.039.156.055.235c0,.018.012.091.018.133.014.155.024.31.025.465v3.343H55.479Zm1.992.276c-.032,0-.022-.032,0-.066,0,.01,0,.022,0,.031Zm.228-.276h-.012a.062.062,0,0,1,.058,0C57.738,50.62,57.706,50.626,57.7,50.625Z"/><path class="cls-1" d="M49.834,50.549a1.162,1.162,0,0,0-.282-.492,1.231,1.231,0,1,0-.009,1.751,1.222,1.222,0,0,0,.289-.5.81.81,0,0,0,.081-.384A.843.843,0,0,0,49.834,50.549Zm-1.816.626-.024-.058-.022-.16A1.243,1.243,0,0,0,48.018,51.175Zm-.046-.275.022-.163.028-.065A1.063,1.063,0,0,0,47.972,50.9Z"/><path class="cls-1" d="M23.6,45.323a3.14,3.14,0,0,0-3.414.934,3.141,3.141,0,1,0,3.414-.934Zm-.077,3.709c-.061.1-.028.039,0,0Zm.157-.27c-.047.086-.095.169-.146.253l0,.007c-.026.029-.051.059-.079.087s-.088.083-.119.114-.152.1-.176.117l-.112.058h0c-.082.025-.162.052-.246.071l-.056.011a.749.749,0,0,1-.075.006c-.089,0-.178,0-.268-.005.18.007-.056-.014-.126-.033-.046-.012-.171-.062-.179-.061-.057-.029-.114-.058-.168-.091-.033-.021-.085-.063-.107-.08-.057-.054-.112-.109-.166-.166-.017-.022-.059-.074-.08-.107s-.077-.144-.1-.184-.045-.138-.052-.163c-.013-.048-.028-.177-.033-.187,0-.084,0-.168,0-.251V48.15c.005-.026.009-.052.015-.078.019-.084.046-.164.071-.246h0c.027-.049.051-.1.08-.148.014-.023.071-.1.094-.138s.129-.132.146-.15a.166.166,0,0,0,.028-.036.214.214,0,0,0,.036-.019c.083-.05.165-.1.251-.145.041-.015.083-.03.125-.042.063-.018.128-.031.193-.043.014,0,.108-.007.152-.007s.108,0,.162.006c.008,0,.006,0,.017,0,.095.025.188.05.282.079.053.026.105.053.155.083s.143.106.15.107l.166.163.008.007c.029.044.059.087.086.132s.07.144.081.161c.03.091.056.183.08.276l0,.026c0,.039,0,.155,0,.153,0,.042-.007.127-.006.149q-.024.119-.057.237A.809.809,0,0,1,23.677,48.762Z"/><path class="cls-1" d="M35.177,41.5h1.647a.974.974,0,0,0,0-1.947H35.177a.974.974,0,1,0,0,1.947Z"/><path class="cls-1" d="M39.975,44.426H35.229a.974.974,0,0,0,0,1.948h4.746a.974.974,0,0,0,0-1.948Z"/><path class="cls-1" d="M6.522,11.1a.063.063,0,0,0-.007.022.04.04,0,0,0,.01-.026Z"/><polygon class="cls-1" points="6.627 11.007 6.626 11.007 6.626 11.007 6.627 11.007 6.627 11.007"/></svg>