<?xml version="1.0" encoding="iso-8859-1"?>
<!-- Generator: Adobe Illustrator 23.1.1, SVG Export Plug-In . SVG Version: 6.00 Build 0)  -->
<svg version="1.1" id="Line-Expand" xmlns="http://www.w3.org/2000/svg" xmlns:xlink="http://www.w3.org/1999/xlink" x="0px"
	 y="0px" viewBox="0 0 64 64" style="enable-background:new 0 0 64 64;" xml:space="preserve">
<path d="M61.667,28.255L47,15.103V13c0-1.654-1.346-3-3-3c-0.727,0-1.386,0.27-1.906,0.702l-9.427-8.447
	c-0.38-0.341-0.955-0.341-1.335,0l-29,26c-0.309,0.277-0.415,0.715-0.267,1.102C2.214,29.745,2.585,30,3,30h2v31
	c0,0.552,0.448,1,1,1h52c0.552,0,1-0.448,1-1V30h2c0.415,0,0.786-0.255,0.934-0.643C62.082,28.97,61.976,28.532,61.667,28.255z
	 M58.387,28H58H47V17.79L58.387,28z M50,50H38v-2.135C38,46.285,39.285,45,40.865,45h6.271C48.715,45,50,46.285,50,47.865V50z
	 M43,13c0-0.551,0.449-1,1-1s1,0.449,1,1v30h-2V13z M32,4.343l9.055,8.114C41.022,12.633,41,12.814,41,13v15H6H5.613L32,4.343z
	 M7,30h34v13h-0.135C38.182,43,36,45.182,36,47.865v2.942L32.323,60H25V41c0-0.552-0.448-1-1-1H12c-0.552,0-1,0.448-1,1v19H7V30z
	 M13,60V42h10v18H13z M49.82,60l-0.839-4.196l-1.961,0.393L47.78,60H45v-4h-2v4h-2.78l0.761-3.804l-1.961-0.393L38.18,60h-3.703
	l3.2-8h12.646l3.2,8H49.82z M57,60h-1.323L52,50.807v-2.942C52,45.182,49.818,43,47.135,43H47V30h10V60z"/>
<path d="M27,25h10c0.552,0,1-0.448,1-1v-6c0-3.309-2.691-6-6-6s-6,2.691-6,6v6C26,24.552,26.448,25,27,25z M28,20h3v3h-3V20z M33,23
	v-3h3v3H33z M36,18h-3v-3.858C34.72,14.589,36,16.142,36,18z M31,14.142V18h-3C28,16.142,29.28,14.589,31,14.142z"/>
<rect x="15" y="50" width="2" height="2"/>
<path d="M32,44h2c0-2.757,2.243-5,5-5v-2c-2.757,0-5-2.243-5-5h-2c0,2.757-2.243,5-5,5v2C29.757,39,32,41.243,32,44z M33,35.587
	c0.594,0.99,1.423,1.819,2.413,2.413c-0.99,0.594-1.819,1.423-2.413,2.413c-0.594-0.99-1.423-1.819-2.413-2.413
	C31.577,37.406,32.406,36.577,33,35.587z"/>
</svg>
