<?xml version="1.0" encoding="utf-8"?>
<!-- Generator: Adobe Illustrator 26.0.2, SVG Export Plug-In . SVG Version: 6.00 Build 0)  -->
<svg version="1.1" id="Layer_3" xmlns="http://www.w3.org/2000/svg" xmlns:xlink="http://www.w3.org/1999/xlink" x="0px" y="0px"
	 viewBox="0 0 64 64" style="enable-background:new 0 0 64 64;" xml:space="preserve">
<g>
	<path d="M47,11c0.552,0,1-0.448,1-1V2c0-0.552-0.448-1-1-1H23c-0.552,0-1,0.448-1,1v1h-3c-0.552,0-1,0.448-1,1v4
		c0,0.552,0.448,1,1,1h3v1c0,0.552,0.448,1,1,1h2v4.472l-3.252,3.331c-1.187,1.216-1.175,3.184,0.027,4.386
		c0.59,0.59,1.372,0.914,2.205,0.914c0.007,0,0.014,0,0.021,0c0.841-0.005,1.627-0.34,2.214-0.943L29.293,20
		C30.394,18.898,31,17.435,31,15.879V11h6v3.879c-0.552,0-1,0.448-1,1v3h-1c-0.552,0-1,0.448-1,1c0,3.498-1.737,6.745-4.648,8.685
		l-7.563,5.042C18.164,36.022,16,40.066,16,44.422V58c0,2.757,2.243,5,5,5h22c2.757,0,5-2.243,5-5V19.879c0-0.552-0.448-1-1-1h-1v-3
		c0-0.552-0.448-1-1-1V11H47z M20,7V5h2v2H20z M24,3h22v6H24V3z M29,15.879c0,1.022-0.398,1.983-1.13,2.716l-3.087,3.168
		c-0.211,0.216-0.493,0.336-0.795,0.338c-0.266,0.015-0.585-0.114-0.799-0.328c-0.432-0.432-0.436-1.138-0.01-1.575l3.537-3.622
		C26.898,16.391,27,16.14,27,15.879V11h2V15.879z M22.898,35.27l7.563-5.042c3.189-2.125,5.196-5.568,5.499-9.349H46V37H20.884
		C21.477,36.353,22.149,35.769,22.898,35.27z M29.183,53.403L27.586,55h-7.172l5.183-5.183
		C26.302,51.414,27.586,52.698,29.183,53.403z M43.586,39l-5.183,5.183c-0.705-1.597-1.989-2.881-3.586-3.586L36.414,39H43.586z
		 M37,47c0,2.757-2.243,5-5,5s-5-2.243-5-5s2.243-5,5-5S37,44.243,37,47z M31.442,53.972C31.627,53.986,31.812,54,32,54
		c3.86,0,7-3.14,7-7c0-0.188-0.014-0.373-0.028-0.558L46,39.414V55H30.414L31.442,53.972z M19.441,39h14.145l-1.028,1.028
		C32.373,40.014,32.188,40,32,40c-3.86,0-7,3.14-7,7c0,0.188,0.014,0.373,0.028,0.558L18,54.586V44.422
		C18,42.486,18.517,40.629,19.441,39z M43,61H21c-1.654,0-3-1.346-3-3v-1h28v1C46,59.654,44.654,61,43,61z M38,18.879v-2h6v2H38z
		 M43,14.879h-4V11h4V14.879z"/>
</g>
</svg>
