<?xml version="1.0" encoding="UTF-8" standalone="no"?> <svg id="Layer_1" data-name="Layer 1" xmlns="http://www.w3.org/2000/svg" viewBox="0 0 64 64"><defs><style>.cls-1{fill:#010101;}</style></defs><path class="cls-1" d="M57.08,13.818l-3.687-3.686c-.178-.179-.357-.357-.536-.536a.987.987,0,0,0-1.377,0l-1.715,1.715-4.118,4.118L40.69,20.386l-4.306,4.306c-.477.477-.962.95-1.439,1.428q-.557-.555-1.112-1.112a6.355,6.355,0,0,0-1.167-1.045,2.711,2.711,0,0,0-2.726.019c-.269.156-.531.322-.8.483l-2.558,1.549-.187.114a26.626,26.626,0,0,1-3.8,2.223q-.453.225-.911.436-.233.107-.466.209l-.22.1-.142.06h0c-.719.29-1.439.57-2.175.812-.785.258-1.582.483-2.388.666q-.624.142-1.256.251c-.211.036-.422.068-.633.1l-.157.02c-.129.015-.257.03-.386.043a18.67,18.67,0,0,1-2.953.071c-.267-.016-.533-.037-.8-.066l-.15-.016-.118-.014-.074-.01-.25-.038a15.827,15.827,0,0,1-1.553-.332.889.889,0,0,0-.1-.006A.81.81,0,0,0,7.71,30.6c-.024,0-.046.014-.07.016a.991.991,0,0,0-.192.045,1.092,1.092,0,0,0-.14.046.981.981,0,0,0-.218.141A1.007,1.007,0,0,0,7,30.924a.863.863,0,0,0-.12.167.82.82,0,0,0-.092.188c0,.015-.016.025-.02.04-.007.03,0,.06,0,.09a.73.73,0,0,0-.03.169,25.935,25.935,0,0,0,1.212,6.553c.007.02.01.041.018.06a25.231,25.231,0,0,0,1.872,4.362,24.552,24.552,0,0,0,1.783,2.782c.014.019.032.032.047.05a.925.925,0,0,0,.14.153c.022.019.044.038.067.056a.963.963,0,0,0,.185.117.926.926,0,0,0,.188.064,1.039,1.039,0,0,0,.113.029.922.922,0,0,0,.359-.022,21.633,21.633,0,0,0,2.114-.7c-.042.033-.083.069-.125.1-.02.016-.039.033-.059.048-.231.178-.469.343-.706.511-.12.084-.237.175-.358.257a1,1,0,0,0-.35,1.333.957.957,0,0,0,.282.292,31.892,31.892,0,0,0,7.669,5.928,33.434,33.434,0,0,0,6.926,2.984h0c.708.209,1.421.394,2.141.544a19.854,19.854,0,0,0,5.074.446.984.984,0,0,0,.974-.973,23.366,23.366,0,0,1,1.185-8.7c.384-1.289.832-2.56,1.329-3.81q.151-.38.309-.758c.018-.044.115-.27.011-.027l.081-.189q.09-.211.183-.422.259-.591.535-1.174c.192-.406.387-.812.6-1.208q.633-1.038,1.265-2.075a6.235,6.235,0,0,0,1.274-2.762,3.067,3.067,0,0,0-1.134-2.314l-1.39-1.39L41.576,30.7l4.118-4.118,4.957-4.957,4.307-4.307c.7-.7,1.419-1.374,2.092-2.092l.03-.03A.99.99,0,0,0,57.08,13.818ZM21.886,48.856l0,0C21.833,48.925,21.863,48.886,21.886,48.856Zm15.223-5.75a39.043,39.043,0,0,0-2.425,8.135,23.3,23.3,0,0,0-.363,4.355c-.373,0-.747-.018-1.12-.046-.326-.024-.65-.059-.974-.1l-.145-.019L31.9,55.4c-.218-.034-.436-.072-.653-.112-.572-.107-1.135-.252-1.7-.4a52.709,52.709,0,0,1,1.948-6.466.978.978,0,0,0-.68-1.2,1,1,0,0,0-1.2.68,52.622,52.622,0,0,0-1.938,6.421c-.267-.09-.538-.164-.8-.262-.822-.3-1.37-.531-2.131-.881q-1.08-.5-2.124-1.068c-.209-.114-.408-.245-.615-.363a31.5,31.5,0,0,0,3.215-4.28,27.124,27.124,0,0,0,1.584-2.855,1,1,0,0,0-.349-1.333.982.982,0,0,0-1.332.35,28.954,28.954,0,0,1-2.759,4.578c-.107.146-.215.292-.324.436l-.144.19-.1.121c-.2.261-.414.52-.628.774q-.421.505-.867.989c-.561-.364-1.117-.736-1.655-1.133-.607-.447-1.228-.944-1.88-1.518-.411-.361-.786-.76-1.174-1.146A26.431,26.431,0,0,0,20.55,42.2a1.373,1.373,0,0,0,.184-.3.948.948,0,0,0,.059-.657.908.908,0,0,0-.167-.319.971.971,0,0,0-1.256-.251,24.535,24.535,0,0,1-2.6,1.477q-.612.3-1.237.571l-.167.071-.267.11c-.18.073-.36.145-.541.214-.385.148-.774.293-1.165.426-.176.06-.354.108-.531.163a23.771,23.771,0,0,1-2.63-4.946,24.244,24.244,0,0,0,4.337-.666.974.974,0,0,0-.517-1.878q-1.044.249-2.1.407c-.239.035-.417.057-.756.092q-.393.041-.788.069c-.274.019-.55.034-.825.043a23.394,23.394,0,0,1-.782-4.013,21.109,21.109,0,0,0,9.678-.739,32.725,32.725,0,0,0,7.565-3.39c.245-.148.48-.313.721-.468l3.792,3.792,6.875,6.875,1.092,1.092C38.006,41,37.541,42.048,37.109,43.106Zm3.86-8.206a1.275,1.275,0,0,1,.1.175c0,.015.038.122.047.156,0,0,0,.023.007.042,0,.042,0,.141,0,.156a.268.268,0,0,0,0,.047s-.009,0-.024.061-.012.067-.008.065a.526.526,0,0,0-.034.054c-.022.04-.045.079-.068.118-.172.289-.35.574-.525.86l-.961,1.577-3.475-3.475-6.874-6.875-.7-.7.867-.525,1.24-.751.327-.2.046-.027c.022-.013.116-.057.146-.074.019,0,.251-.051.072-.03.062-.007.122,0,.184-.008l.047,0c.035.01.159.036.192.045l.013,0c.031.016.063.032.093.05s.057.035.085.054c.012.012.038.035.056.054s.033.034.05.051c.126.124.251.25.376.376l1.581,1.58.431.431,3.7,3.7.391.392c.855.855,1.687,1.744,2.571,2.57C40.936,34.864,40.957,34.887,40.969,34.9ZM53.988,15.533,49.87,19.651l-4.957,4.957-4.307,4.307c-.474.474-.965.944-1.443,1.423L36.327,27.5l1.027-1.027,4.117-4.118L46.428,17.4,50.735,13.1c.477-.477.961-.95,1.439-1.428q1.421,1.419,2.84,2.84Z"/></svg>