<?xml version="1.0" encoding="UTF-8"?><svg id="Layer_1" xmlns="http://www.w3.org/2000/svg" viewBox="0 0 64 64"><path d="M53.19,37.94c-2.17-.58-2.55-.97-3.13-3.13-.13-.48-.56-.81-1.06-.81s-.93,.33-1.06,.81c-.58,2.17-.96,2.55-3.14,3.13-.48,.13-.81,.56-.81,1.06s.33,.93,.81,1.06c2.17,.58,2.55,.97,3.13,3.13,.13,.48,.56,.81,1.06,.81s.93-.33,1.06-.81c.58-2.17,.96-2.55,3.13-3.13h0c.48-.13,.81-.56,.81-1.06s-.33-.93-.81-1.06Zm-4.19,2.46c-.36-.6-.8-1.04-1.4-1.4,.6-.36,1.04-.8,1.4-1.4,.36,.6,.8,1.04,1.4,1.4-.6,.36-1.04,.8-1.4,1.4Z"/><path d="M20,37H8c-1.65,0-3,1.35-3,3v14c0,1.65,1.35,3,3,3h12c1.65,0,3-1.35,3-3v-14c0-1.65-1.35-3-3-3Zm1,17c0,.55-.45,1-1,1H8c-.55,0-1-.45-1-1v-14c0-.55,.45-1,1-1h12c.55,0,1,.45,1,1v14Z"/><path d="M62,1H12c-.55,0-1,.45-1,1v1.65c-.03,.06-.06,.11-.08,.17-.76,2.8-1.29,3.34-4.1,4.09-.49,.13-.83,.58-.83,1.08s.34,.95,.83,1.08c2.8,.75,3.34,1.29,4.09,4.09,.02,.06,.05,.12,.08,.17v18.65H4c-1.65,0-3,1.35-3,3v22c0,1.65,1.35,3,3,3H24c1.65,0,3-1.35,3-3v-5H62c.55,0,1-.45,1-1V2c0-.55-.45-1-1-1ZM9.72,9c1.05-.54,1.74-1.23,2.28-2.28,.54,1.05,1.23,1.74,2.28,2.28-1.05,.54-1.74,1.23-2.28,2.28-.54-1.05-1.23-1.74-2.28-2.28Zm15.28,49c0,.55-.45,1-1,1H4c-.55,0-1-.45-1-1v-22c0-.55,.45-1,1-1H24c.55,0,1,.45,1,1v22Zm-5.86-25h-2.14v-2h2.14c-.08,.32-.14,.65-.14,1s.06,.67,.14,1Zm6.53,.48c-.14-.12-.3-.19-.47-.22-.37-.16-.78-.26-1.21-.26h-2.73c-.18-.3-.27-.64-.27-1,0-1.1,.9-2,2-2,.55,0,1-.45,1-1s.45-1,1-1,1,.45,1,1,.45,1,1,1c1.1,0,2,.9,2,2s-.9,2-2,2c-.49,0-.96-.18-1.33-.52Zm5.19-2.48h2.14v16h-6v-11c2.21,0,4-1.79,4-4,0-.35-.06-.68-.14-1Zm30.14,20H27v-2h7c.55,0,1-.45,1-1V30c0-.55-.45-1-1-1h-4.36c-.5-.44-1.11-.76-1.78-.91-.39-1.21-1.52-2.09-2.86-2.09s-2.47,.88-2.86,2.09c-.67,.15-1.28,.47-1.78,.91h-4.36c-.55,0-1,.45-1,1v3h-2V14.35c.03-.06,.06-.11,.08-.17,.5-1.84,.91-2.7,1.92-3.29v8c-.07,.02-.12,.04-.19,.06-.48,.13-.81,.56-.81,1.06s.33,.93,.81,1.06c.07,.02,.12,.04,.19,.06v2.89c0,.55,.45,1,1,1h18c.55,0,1-.45,1-1V6c0-.55-.45-1-1-1H16c-.55,0-1,.45-1,1v1.12c-1.01-.59-1.42-1.45-1.92-3.29-.02-.06-.05-.12-.08-.17v-.65H61V51ZM17.17,7.92c-.06-.02-.11-.03-.17-.05v-.87h16V23h-12.56c.46-1.15,1.06-1.49,2.75-1.94h0c.48-.13,.81-.56,.81-1.06s-.33-.93-.81-1.06c-2.17-.58-2.55-.97-3.13-3.13-.13-.48-.56-.81-1.06-.81s-.93,.33-1.06,.81c-.28,1.06-.52,1.69-.94,2.12v-7.8c.06-.02,.11-.03,.17-.05h0c.49-.13,.83-.58,.83-1.08s-.34-.95-.83-1.08Zm3.23,12.08c-.6,.36-1.04,.8-1.4,1.4-.36-.6-.8-1.04-1.4-1.4,.6-.36,1.04-.8,1.4-1.4,.36,.6,.8,1.04,1.4,1.4Zm-2.84,3h-.56v-.93c.23,.24,.4,.54,.56,.93Z"/><path d="M40,25h18c.55,0,1-.45,1-1V6c0-.55-.45-1-1-1h-18c-.55,0-1,.45-1,1V24c0,.55,.45,1,1,1Zm1-18h16V23h-16V7Z"/><path d="M40,49h18c.55,0,1-.45,1-1V30c0-.55-.45-1-1-1h-18c-.55,0-1,.45-1,1v18c0,.55,.45,1,1,1Zm1-18h16v16h-16V31Z"/></svg>