<svg xmlns="http://www.w3.org/2000/svg" data-name="Layer 1" viewBox="0 0 64 64"><path d="M39.25 16.7a4.7 4.7 0 01-3-2.95L33 3.68a1 1 0 00-1.9 0L27.7 13.75a4.73 4.73 0 01-2.95 2.95L14.68 20.05a1 1 0 000 1.9L24.75 25.3a4.7 4.7 0 012.95 2.95l3.35 10.07a1 1 0 001.9 0L36.3 28.25a4.7 4.7 0 013-2.95L49.32 22a1 1 0 000-1.9zm-.63 6.71a6.66 6.66 0 00-4.21 4.21L32 34.84l-2.4-7.22a6.71 6.71 0 00-4.22-4.22L18.16 21l7.22-2.41a6.68 6.68 0 004.21-4.21L32 7.16l2.4 7.22a6.69 6.69 0 004.22 4.21L45.84 21zM62.32 47.05l-7.11-2.37a3 3 0 01-1.89-1.89L51 35.68a1 1 0 00-1.9 0l-2.37 7.11a3 3 0 01-1.89 1.89l-7.11 2.37a1 1 0 000 1.9l7.11 2.37a3 3 0 011.89 1.89l2.37 7.11a1 1 0 001.9 0l2.36-7.11a3 3 0 011.9-1.89L62.32 49a1 1 0 000-1.9zm-7.74 2.37a5 5 0 00-3.16 3.16L50 56.84l-1.42-4.26a5 5 0 00-3.16-3.16L41.16 48l4.26-1.42a5 5 0 003.16-3.16L50 39.16l1.42 4.26a5 5 0 003.16 3.16L58.84 48zM10.68 53.21l2.37 7.11a1 1 0 001.9 0l2.36-7.11a3 3 0 011.9-1.89L26.32 49a1 1 0 000-1.9l-7.11-2.37a3 3 0 01-1.89-1.89L15 35.68a1 1 0 00-1.9 0l-2.37 7.11a3 3 0 01-1.89 1.89L1.68 47.05a1 1 0 000 1.9l7.11 2.37A3 3 0 0110.68 53.21zM9.42 46.58a5 5 0 003.16-3.16L14 39.16l1.42 4.26a5 5 0 003.16 3.16L22.84 48l-4.26 1.42a5 5 0 00-3.16 3.16L14 56.84l-1.42-4.26a5 5 0 00-3.16-3.16L5.16 48z"/></svg>